<svg width="21" height="21" viewBox="0 0 21 21" fill="none" xmlns="http://www.w3.org/2000/svg">
<path d="M5.74904 21C5.22442 21 4.69979 20.79 4.17517 20.475C3.33576 19.845 2.81112 18.795 3.02098 17.745L3.65053 13.65L0.817541 10.71C0.0830556 9.975 -0.231713 8.82 0.187982 7.77C0.502761 6.72 1.34217 6.09 2.39143 5.88L6.3786 5.25L8.16234 1.575C8.58207 0.63 9.52633 0 10.5756 0C11.6249 0 12.5692 0.63 13.0938 1.575L14.7727 5.25L18.6549 5.88C19.7042 5.985 20.5436 6.72 20.8584 7.77C21.1731 8.82 20.9632 9.87 20.2288 10.71L17.3958 13.65L18.0253 17.745C18.2352 18.795 17.8155 19.95 16.8712 20.475C16.0318 21.105 14.9826 21.105 14.0382 20.685L10.5756 18.69L7.11308 20.58C6.69338 20.895 6.27368 21 5.74904 21ZM10.5756 2.1C10.4707 2.1 10.1559 2.1 10.051 2.52L8.05742 6.72C7.84756 7.035 7.53278 7.245 7.218 7.245L2.70621 7.98C2.39143 7.98 2.2865 8.295 2.18157 8.4C2.18157 8.505 2.07665 8.82 2.39143 9.135L5.64412 12.39C5.85397 12.6 5.9589 12.915 5.9589 13.335L5.22442 17.955C5.11949 18.375 5.43427 18.585 5.53919 18.69C5.64412 18.795 5.85397 18.9 6.16875 18.69L10.1559 16.485C10.4707 16.275 10.8904 16.275 11.2052 16.485L15.1923 18.69C15.5071 18.795 15.717 18.69 15.8219 18.69C15.9268 18.585 16.1367 18.375 16.1367 17.955L15.4022 13.335C15.2972 13.02 15.4022 12.705 15.717 12.39L18.9697 9.135C19.0746 8.925 18.9697 8.505 18.9697 8.4C18.9697 8.295 18.7598 7.98 18.445 7.98L13.9333 7.35C13.6185 7.35 13.3037 7.035 13.0938 6.72L11.1003 2.52C10.9953 2.1 10.6806 2.1 10.5756 2.1Z" fill="#E6E9ED"/>
</svg>
