<svg width="21" height="20" viewBox="0 0 21 20" fill="none" xmlns="http://www.w3.org/2000/svg">
<path d="M14.4155 0C16.6154 0.000101746 18.5153 1.70046 18.7153 3.90039L20.0151 15.2998C20.1151 16.4997 19.7153 17.6996 18.9155 18.5996C18.1155 19.4996 16.9153 20 15.7153 20H4.31488C3.11504 19.9999 2.01556 19.4995 1.11566 18.5996C0.315683 17.6996 -0.0849229 16.4998 0.0150757 15.2998L1.41547 3.90039C1.61547 1.70039 3.41567 0 5.61566 0H14.4155ZM5.61566 2C4.4158 2 3.51563 2.89981 3.41547 4.09961L2.01508 15.5C1.91509 16.1 2.21567 16.7002 2.61566 17.2002C3.01558 17.6999 3.6152 17.9003 4.31488 17.9004H15.8149C16.4148 17.9004 17.0151 17.6001 17.5151 17.2002C17.9151 16.7002 18.1157 16.1 18.1157 15.5L16.6157 4.09961C16.5155 2.89985 15.6152 2.0001 14.4155 2H5.61566ZM14.1157 3.2998C14.7155 3.2999 15.1155 3.70002 15.1157 4.2998C15.1157 7.0998 12.8151 9.40039 10.0151 9.40039C7.21525 9.40019 4.91547 7.09968 4.91547 4.2998C4.91558 3.69995 5.31555 3.2998 5.91547 3.2998C6.51537 3.29981 6.91535 3.69995 6.91547 4.2998C6.91547 5.99968 8.31525 7.40019 10.0151 7.40039C11.7151 7.40039 13.1157 5.9998 13.1157 4.2998C13.1158 3.69995 13.5157 3.2998 14.1157 3.2998Z" fill="#E6E9ED"/>
</svg>
