<svg width="21" height="15" viewBox="0 0 21 15" fill="none" xmlns="http://www.w3.org/2000/svg">
<path d="M13 12.1504C13.5523 12.1504 14 12.5981 14 13.1504C13.9998 13.7025 13.5522 14.1504 13 14.1504H1C0.44795 14.1503 0.000197787 13.7024 0 13.1504C0 12.5982 0.447828 12.1505 1 12.1504H13ZM19.0439 6C19.5961 6.00013 20.0439 6.4478 20.0439 7C20.0439 7.55215 19.5961 7.99987 19.0439 8H1.04395C0.491701 8 0.0440113 7.55223 0.0439453 7C0.0439453 6.44772 0.491661 6 1.04395 6H19.0439ZM19.0586 0C19.6108 0.000132049 20.0586 0.447797 20.0586 1C20.0586 1.5522 19.6108 1.99987 19.0586 2H1.05859C0.506309 2 0.0585938 1.55228 0.0585938 1C0.0585938 0.447715 0.506309 0 1.05859 0H19.0586Z" fill="#E6E9ED"/>
</svg>
